Coordinates
version=1
nRows=14
nColumns=40
inDegrees=yes

Units are S.I. units (second, meters, Newtons, ...)
Angles are in degrees.

endheader
time	pelvis_tilt	pelvis_list	pelvis_rotation	pelvis_tx	pelvis_ty	pelvis_tz	hip_flexion_r	hip_adduction_r	hip_rotation_r	knee_angle_r	knee_angle_r_beta	ankle_angle_r	subtalar_angle_r	mtp_angle_r	hip_flexion_l	hip_adduction_l	hip_rotation_l	knee_angle_l	knee_angle_l_beta	ankle_angle_l	subtalar_angle_l	mtp_angle_l	lumbar_extension	lumbar_bending	lumbar_rotation	arm_flex_r	arm_add_r	arm_rot_r	elbow_flex_r	pro_sup_r	wrist_flex_r	wrist_dev_r	arm_flex_l	arm_add_l	arm_rot_l	elbow_flex_l	pro_sup_l	wrist_flex_l	wrist_dev_l
      1.20000000	     -0.12209523	      4.09769460	     -1.26593249	      0.04128761	      0.95860524	     -1.49525304	     21.89743853	    -15.66617635	    -17.16236240	    -47.10090764	     -0.82206592	      3.46228651	    -15.00986089	     15.97268488	      0.69313687	     -6.38180031	     10.29925292	    -12.29254124	     -0.21454532	      6.42137341	      6.85557137	     -2.42772139	     -4.37784725	     -4.06309911	     -1.48586463	      0.89229424	     -8.98364838	    -21.17239551	     17.58984956	     89.95437384	      0.00000000	      0.00000000	      4.62668078	     14.05453304	     12.80108417	     27.79803883	     89.95437384	      0.00000000	      0.00000000
      1.21000000	     -0.09093393	      3.85642263	     -0.98782949	      0.04909165	      0.95826571	     -1.49563239	     22.34164910	    -15.23438019	    -17.64309039	    -45.02592959	     -0.78585072	      3.43990879	    -14.24632447	     15.74754138	      0.10748076	     -6.10780244	     10.21058420	    -12.30202654	     -0.21471087	      6.62429217	      6.47735190	     -3.07685596	     -4.56608459	     -3.74258313	     -1.86829548	      0.65707062	     -8.95005379	    -22.25555904	     17.48164270	     89.95437384	      0.00000000	      0.00000000	      5.42474418	     14.40486885	     11.72965107	     28.53859400	     89.95437384	      0.00000000	      0.00000000
      1.22000000	     -0.07466658	      3.50529580	     -0.67871000	      0.05689502	      0.95783544	     -1.49594476	     22.69054846	    -14.66994133	    -18.20796212	    -42.82044168	     -0.74735769	      3.52344279	    -13.52074213	     15.42087617	     -0.43949593	     -5.69166954	     10.13833725	    -12.32623312	     -0.21513335	      6.78841612	      6.03215081	     -4.12453016	     -4.72525495	     -3.29149833	     -2.31242643	      0.48126712	     -8.90189897	    -23.52485588	     17.32664238	     89.95437384	      0.00000000	      0.00000000	      6.23146447	     14.66620410	     11.00352357	     29.17455412	     89.95437384	      0.00000000	      0.00000000
      1.23000000	     -0.37873459	      3.75167222	     -0.65763297	      0.06488492	      0.95659801	     -1.49621324	     23.68758481	    -14.74828102	    -18.39686477	    -40.90817031	     -0.71398226	      3.61040258	    -13.03859899	     15.25204055	     -0.63809191	     -5.98342538	     10.38162710	    -12.34442306	     -0.21545083	      7.06790288	      5.93980798	     -4.20871191	     -4.44542093	     -3.48868368	     -2.56109193	      0.14691994	     -8.97724392	    -23.44049727	     17.28241246	     89.95437384	      0.00000000	      0.00000000	      6.90910599	     14.88529919	     10.80672298	     29.73356311	     89.95437384	      0.00000000	      0.00000000
      1.24000000	     -0.06399833	      3.14645994	     -0.37747666	      0.07291775	      0.95660155	     -1.49601818	     23.39161540	    -13.80287341	    -18.99171221	    -38.11629205	     -0.66525479	      3.17229606	    -11.99400393	     15.15399583	     -1.58760480	     -5.26364248	     10.13219897	    -12.30618232	     -0.21478340	      7.49704958	      5.73577418	     -4.79979174	     -4.91948135	     -2.78234207	     -2.96383335	      0.00956836	     -9.01921241	    -24.05847728	     17.09180119	     89.95437384	      0.00000000	      0.00000000	      7.68268812	     15.24453665	      9.65808224	     30.35522314	     89.95437384	      0.00000000	      0.00000000
      1.25000000	      0.05023204	      2.96520003	     -0.23399803	      0.08107105	      0.95605701	     -1.49575430	     23.47411662	    -13.34234080	    -19.46875845	    -35.54895293	     -0.62044627	      2.90252148	    -11.16515445	     14.93818332	     -2.32905580	     -4.99145656	     10.38637576	    -12.18818452	     -0.21272395	      7.64557423	      5.08979273	     -5.56823399	     -5.14396523	     -2.55002384	     -3.25972516	     -0.18905944	     -8.95554728	    -24.91514430	     17.03277201	     89.95437384	      0.00000000	      0.00000000	      8.39695087	     15.52524992	      8.99658499	     30.91758514	     89.95437384	      0.00000000	      0.00000000
      1.26000000	      0.06158888	      2.86640711	     -0.14371573	      0.08920757	      0.95525584	     -1.49536474	     23.67487968	    -12.94042197	    -19.89191837	    -32.98287008	     -0.57565968	      2.63077399	    -10.39905485	     14.76314942	     -2.95068108	     -4.82079972	     10.56016051	    -12.11377373	     -0.21142524	      7.89457034	      4.77047430	     -6.13726310	     -5.23524839	     -2.40330592	     -3.47567735	     -0.42905587	     -8.97694574	    -25.15924098	     16.93223897	     89.95437384	      0.00000000	      0.00000000	      9.08508446	     15.81620206	      8.41444293	     31.43106299	     89.95437384	      0.00000000	      0.00000000
      1.27000000	      0.21198569	      2.75058755	     -0.03021099	      0.09757612	      0.95462334	     -1.49501804	     23.64022365	    -12.57083665	    -20.49841681	    -30.38506889	     -0.53031950	      2.40829112	     -9.54365856	     14.51760193	     -3.77993675	     -4.61436827	     10.83371924	    -11.94728117	     -0.20851939	      7.97861259	      4.16163625	     -6.92844159	     -5.46519183	     -2.22241341	     -3.74406740	     -0.64728056	     -8.99064497	    -25.53494415	     16.85998383	     89.95437384	      0.00000000	      0.00000000	      9.75211989	     16.03863162	      7.95141262	     31.89429254	     89.95437384	      0.00000000	      0.00000000
      1.28000000	      0.23940809	      2.64991774	      0.05935312	      0.10583264	      0.95371170	     -1.49446640	     23.70516320	    -12.18402367	    -21.05418495	    -27.79096501	     -0.48504384	      2.26158821	     -8.44337712	     14.17943807	     -4.41607342	     -4.40053065	     11.09021635	    -11.90310941	     -0.20774845	      8.13312827	      3.64897189	     -7.63930393	     -5.55538388	     -2.07018235	     -3.96092371	     -0.85087796	     -8.93532031	    -26.18516800	     16.78214966	     89.95437384	      0.00000000	      0.00000000	     10.38005063	     16.28342686	      7.40550319	     32.31257417	     89.95437384	      0.00000000	      0.00000000
      1.29000000	     -0.03231283	      2.81182817	      0.10894738	      0.11388861	      0.95221496	     -1.49392912	     24.25207086	    -12.05684324	    -21.28387916	    -25.46190189	     -0.44439402	      2.17675267	     -7.40392978	     14.06928173	     -4.72888951	     -4.52861518	     11.14708766	    -11.80077641	     -0.20596240	      8.30924170	      3.37964131	     -7.88701819	     -5.32217487	     -2.21298052	     -4.13879018	     -1.09070772	     -8.95936730	    -26.07804857	     16.60529422	     89.95437384	      0.00000000	      0.00000000	     10.97060211	     16.48332627	      7.07308000	     32.69441468	     89.95437384	      0.00000000	      0.00000000
      1.30000000	      0.25882999	      2.58126389	      0.27019447	      0.12257668	      0.95170178	     -1.49321260	     23.86284790	    -11.61443703	    -22.35842762	    -22.95968849	     -0.40072216	      2.05820219	     -5.70138353	     13.53261301	     -5.69709950	     -4.11056999	     11.61446933	    -11.69254062	     -0.20407333	      8.28286780	      2.56315768	     -8.74700406	     -5.67863402	     -1.91252535	     -4.44833638	     -1.28695006	     -8.94028058	    -26.48961134	     16.56446595	     89.95437384	      0.00000000	      0.00000000	     11.54175120	     16.63596847	      6.82895249	     33.00136212	     89.95437384	      0.00000000	      0.00000000
      1.31000000	     -0.07176767	      2.79143324	      0.35373164	      0.13057669	      0.95003406	     -1.49251868	     24.49082236	    -11.57036579	    -22.71298502	    -20.93994967	     -0.36547107	      1.94457673	     -4.68989283	     13.41444943	     -5.91587671	     -4.27607345	     11.68369903	    -11.63509503	     -0.20307072	      8.46475159	      2.34315235	     -8.94722589	     -5.40042158	     -2.10203394	     -4.64666890	     -1.49257124	     -8.92074155	    -26.44405267	     16.46249837	     89.95437384	      0.00000000	      0.00000000	     12.07959116	     16.79777405	      6.62303958	     33.29220500	     89.95437384	      0.00000000	      0.00000000
      1.32000000	     -0.13769567	      2.62778791	      0.53867249	      0.13891255	      0.94889500	     -1.49178621	     24.51617126	    -11.14862681	    -23.47238411	    -18.62769654	     -0.32511464	      1.72246593	     -2.76742546	     13.17783901	     -6.42663848	     -3.96276804	     11.82288280	    -11.64959932	     -0.20332386	      8.68268684	      1.96198886	     -9.35997768	     -5.38405825	     -1.87045948	     -4.92887384	     -1.66835405	     -8.92645471	    -26.65661353	     16.32606157	     89.95437384	      0.00000000	      0.00000000	     12.58832156	     16.91317964	      6.35046092	     33.48054093	     89.95437384	      0.00000000	      0.00000000
      1.33000000	      0.09499382	      2.25673082	      0.83386566	      0.14802725	      0.94808018	     -1.49080169	     24.15020652	    -10.67787877	    -25.07454091	    -16.61936278	     -0.29006260	      0.44587104	     -0.16362450	      5.53002538	     -7.21564285	     -3.16660728	     13.16760692	    -11.72813239	     -0.20469453	      7.50841438	      0.03749095	    -15.36041894	     -5.64023014	     -1.41424596	     -5.27917238	     -1.83159247	     -8.94298515	    -26.84636371	     16.14726293	     89.95437384	      0.00000000	      0.00000000	     13.03479477	     16.92721989	      6.34052762	     33.69066831	     89.95437384	      0.00000000	      0.00000000
